<?xml version="1.0"?>
<svg xmlns="http://www.w3.org/2000/svg" xmlns:xlink="http://www.w3.org/1999/xlink" xmlns:svgjs="http://svgjs.com/svgjs" version="1.1" width="512" height="512" x="0" y="0" viewBox="0 0 512 512" style="enable-background:new 0 0 512 512" xml:space="preserve" class=""><g><g xmlns="http://www.w3.org/2000/svg"><path d="m0 400.6v32.134c0 8.284 6.716 15 15 15s15-6.716 15-15v-17.134h452v17.134c0 8.284 6.716 15 15 15s15-6.716 15-15v-32.134-49.267h-512z" fill="#0e7490" data-original="#000000" class=""/><path d="m456.834 224.933h-401.668c-30.418 0-55.166 24.748-55.166 55.167v41.233h512v-41.233c0-30.419-24.748-55.167-55.166-55.167z" fill="#0e7490" data-original="#000000" class=""/><path d="m199.768 158.533c-13.878 0-25.168 11.289-25.168 25.166v11.233h162.8v-11.233c0-13.877-11.289-25.166-25.166-25.166z" fill="#0e7490" data-original="#000000" class=""/><path d="m144.6 183.699c0-30.419 24.748-55.166 55.168-55.166h112.467c30.419 0 55.166 24.747 55.166 55.166v11.233h80.334v-75.5c0-30.419-24.748-55.166-55.168-55.166h-273.133c-30.419 0-55.166 24.747-55.166 55.166v75.5h80.332z" fill="#0e7490" data-original="#000000" class=""/></g></g></svg>
